<svg xmlns="http://www.w3.org/2000/svg" width="36.96" height="46.364" viewBox="0 0 36.96 46.364">
  <path id="Path_4452" data-name="Path 4452" d="M438.793,234.451c0,7.69-10.547,8.579-18.478,8.579h-.567c-5.053-.012-17.915-.331-17.915-8.626,0-7.534,10.123-8.541,17.993-8.579h1.057C425.936,225.837,438.793,226.156,438.793,234.451Zm-18.478-5.127c-9.942,0-14.982,1.708-14.982,5.08,0,3.4,5.04,5.126,14.982,5.126s14.978-1.708,14.978-5.079C435.293,231.049,430.255,229.324,420.315,229.324Zm0-32.658a12.389,12.389,0,0,1,0,24.778h-.074a12.389,12.389,0,0,1,.074-24.778Zm0,3.332a9.058,9.058,0,0,0-.067,18.116l.067,1.666v-1.666a9.058,9.058,0,0,0,0-18.116Z" transform="translate(-401.833 -196.666)" fill="#9398a1" fill-rule="evenodd"/>
</svg>