<svg xmlns="http://www.w3.org/2000/svg" width="46.643" height="46.06" viewBox="0 0 46.643 46.06">
  <path id="Path_4453" data-name="Path 4453" d="M146.136,226.382a1.751,1.751,0,0,1,1.612,1.879l-.443,5.854a9.353,9.353,0,0,1-9.284,8.612H110.954a9.352,9.352,0,0,1-9.284-8.612l-.444-5.854a1.754,1.754,0,0,1,1.615-1.879A1.776,1.776,0,0,1,104.719,228l.441,5.852a5.839,5.839,0,0,0,5.794,5.378h27.067a5.837,5.837,0,0,0,5.793-5.378l.444-5.852A1.787,1.787,0,0,1,146.136,226.382ZM127.5,196.667a6.918,6.918,0,0,1,6.85,6.018l4.595,0a8.887,8.887,0,0,1,8.867,8.892V219.6a1.752,1.752,0,0,1-.866,1.51,44.472,44.472,0,0,1-20.707,5.6v4.2a1.75,1.75,0,0,1-3.5,0l0-4.2a44.444,44.444,0,0,1-20.7-5.6,1.746,1.746,0,0,1-.865-1.51v-8.047a8.889,8.889,0,0,1,8.89-8.869l4.571,0a6.918,6.918,0,0,1,6.85-6.018Zm11.445,9.52H110.057a5.385,5.385,0,0,0-5.39,5.369v7.028a42.035,42.035,0,0,0,19.788,4.662l.033,0h.026l1.111-.012a41.69,41.69,0,0,0,18.685-4.648v-7.005A5.383,5.383,0,0,0,138.943,206.187Zm-11.445-6.02h-6.02a3.413,3.413,0,0,0-3.289,2.518h12.6A3.413,3.413,0,0,0,127.5,200.167Z" transform="translate(-101.167 -196.667)" fill="#9398a1" fill-rule="evenodd"/>
</svg>
